<svg xmlns="http://www.w3.org/2000/svg" viewBox="-60 -64 120 116">
    <g>
        <path d="M -1 1 c -2 0,-7 -5,6 24 s -3 -1,-1.333333333333333333 0.8 s 2 8,-5 -3 s -0.666666666666666667 0.4,6 -12 q -2.333333333333333333 1.4,-16 -14 t 7 -14 t 8 -16 q 3 -6,-9 -7 t 1 -2 t 2 -4" fill="transparent" opacity=".75" stroke="rgb(238, 13, 56)"/>
        <path d="M 1 -2 c 2 -4,-2.333333333333333333 1.4,6 24 s -1 0.6,-1.333333333333333333 0.8 s 2 8,5 -10 s -0.666666666666666667 0.4,-6 -4 q -2.333333333333333333 1.4,16 -32 t -7 -5 t -8 -6 q -3 -1,9 -18 t -1 1 t -2 0" fill="transparent" opacity=".75" stroke="rgb(238, 56, 13)"/>
    </g>
</svg>