<svg xmlns="http://www.w3.org/2000/svg" viewBox="-100 -100 200 200">
    <text x="-100" y="-90" style="font-family: sans-serif; font-size: 4; color: rgb(128,128,128)">9043923546232890368</text>
    <g>
        <path d="M 1 1.2483855009667337 c 2 2.4967710019334675,-5.607242309830809 -8.738698506767136,-12 -13.248385500966734 s -2.403103847070347 -3.745156502900201,-4 -5.248385500966734 s -4 -5.248385500966734,5 6.241927504833669 s -2 -3.2483855009667337,6 7.490313005800402 q -7 -8.248385500966734,16 19.97416801546774 t 7 8.738698506767136 t 8 9.98708400773387 q 3 3.745156502900201,9 11.235469508700604 t 1 1.2483855009667337 t 2 2.4967710019334675" fill="transparent" opacity=".75" stroke="rgb(145, 37, 48)"/>
        <path d="M -1 -2.514982790280111 c -2 -3.514982790280111,-7 -8.514982790280111,12 18.17979348336133 s -3 -4.514982790280111,3 -0.6059931161120444 s 4 6.059931161120444,4 -0.7574913951400555 s 2 -0.3029965580560222,-6 -7.514982790280111 q 5 -1.0604879531960778,11 -2.4239724644481777 t -7 -8.514982790280111 t -8 -9.514982790280111 q -3 -4.514982790280111,6 -1.3634845112521 t -1 -2.514982790280111 t -2 -3.514982790280111" fill="transparent" opacity=".75" stroke="rgb(145, 37, 48)"/>
        <path d="M -2 0.025048219429000207 c -6 0.050096438858000414,-26 0.17533753600300145,-12 -11.749517805709997 s -10 0.07514465828700062,4 -1.0019287771600083 s -4 -3.749517805709998,19.96149871719474 1.2524109714500105 s 2 -0.5009643885800041,23.95379846063369 1.5028931657400124 q 7 -1.7533753600300144,63.87679589502317 4.007715108640033 t 27.946098204072637 1.7533753600300144 t 31.938397947511586 2.0038575543200166 q 11.976899230316844 0.7514465828700062,35.93069769095053 2.2543397486100187 t 3.9922997434389482 0.25048219429000207 t 7.9845994868778964 0.5009643885800041" fill="transparent" opacity=".75" stroke="rgb(37,48,145)"/>
    </g>
</svg>
