<svg xmlns="http://www.w3.org/2000/svg" viewBox="-100 -100 200 200">
    <text x="-100" y="-90" style="font-family: sans-serif; font-size: 4; color: rgb(128,128,128)">111111</text>
    <g>
        <path d="M 1 1.6074174345627517 c 2 3.2148348691255033,7 11.251922041939261,-12 -13.607417434562752 s 3 4.822252303688255,-4 -5.607417434562752 s -4 -5.607417434562752,-5 -6.607417434562752 s -2 -3.607417434562752,6 9.64450460737651 q -7 -8.607417434562752,-16 -17.607417434562752 t 7 11.251922041939261 t 8 12.859339476502013 q 3 4.822252303688255,-9 -10.607417434562752 t 1 1.6074174345627517 t 2 3.2148348691255033" fill="transparent" opacity=".75" stroke="rgb(221, 190, 28)"/>
        <path d="M 1 1.8450298834665926 c 2 3.690059766933185,-7 -8.845029883466593,-6.503959696009596 -22.14035860159911 s -3 -4.845029883466593,-2.1679865653365322 -7.38011953386637 s -2.1679865653365322 -7.38011953386637,-2.709983206670665 -9.225149417332963 s -1.0839932826682661 -3.690059766933185,-6 -7.845029883466593 q -3.793976489338931 -12.915209184266148,-8.671946261346129 -29.52047813546548 t -7 -8.845029883466593 t -8 -9.845029883466593 q -3 -4.845029883466593,-4.877969772007197 -16.605268951199335 t -1 -2.8450298834665926 t -2 -3.8450298834665926" fill="transparent" opacity=".75" stroke="rgb(28, 190, 221)"/>
        <path d="M 0.7956192763302923 1.2568825690252148 c 1.5912385526605846 2.5137651380504296,5.569334934312046 8.798177983176503,9.547431315963507 15.082590828302578 s 2.386857828990877 3.7706477070756446,4 -5.027530276100859 s 3.182477105321169 5.027530276100859,-2 0.6284412845126074 s 2 -2.5137651380504296,4.773715657981754 7.541295414151289 q 7 -8.798177983176503,-11 2.0110121104403436 t 5.569334934312046 8.798177983176503 t 6.364954210642338 10.055060552201718 q 2.386857828990877 3.7706477070756446,-6 1.1311943121226933 t 0.7956192763302923 1.2568825690252148 t 1.5912385526605846 2.5137651380504296" fill="transparent" opacity=".75" stroke="rgb(190,28,221)"/>
        <path d="M 1 1.683171607267528 c 2 3.366343214535056,-4.15881539931858 -11.782201250872696,8 -2.0198059287210337 s -1.7823494568508198 -5.049514821802584,-4 -5.6831716072675285 s 3 -0.6732686429070113,-5 -6.6831716072675285 s -2 -3.683171607267528,6 10.099029643605167 q -7 -8.683171607267528,-16 -17.68317160726753 t 7 11.782201250872696 t 8 13.465372858140224 q 3 5.049514821802584,-9 -10.683171607267528 t 1 1.683171607267528 t 2 3.366343214535056" fill="transparent" opacity=".75" stroke="rgb(221, 190, 28)"/>
        <path d="M 1 1.7217024514985588 c 2 3.4434049029971177,-7 -8.721702451498558,12 20.660429417982705 s -3 -4.721702451498559,3 -0.6886809805994236 s 4 6.886809805994235,3 -0.8608512257492795 s 2 -0.3443404902997118,4 -1.0330214708991354 q 5 -1.2051917160489913,10 -2.7547239223976945 t 5 -1.2051917160489913 t 5 -1.3773619611988472 q 2 -0.5165107354495677,6 -1.5495322063487031 t 1 -0.1721702451498559 t 2 -0.3443404902997118" fill="transparent" opacity=".75" stroke="rgb(221, 190, 28)"/>
        <path d="M -0.5892433418136266 -1.6970917260127358 c -1.1784866836272532 -3.3941834520254717,-7 -8.697091726012737,-7.070920101763519 -20.36510071215283 s -3 -4.697091726012736,-4 -5.697091726012736 s -2.3569733672545063 -6.788366904050943,-5 -6.697091726012736 s -2 -3.6970917260127356,-3.5354600508817593 -10.182550356076415 q -7 -8.697091726012737,-16 -17.697091726012737 t -4.124703392695386 -11.87964208208915 t -4.713946734509013 -13.576733808101887 q -1.7677300254408796 -5.091275178038208,-9 -10.697091726012737 t -0.5892433418136266 -1.6970917260127358 t -1.1784866836272532 -3.3941834520254717" fill="transparent" opacity=".75" stroke="rgb(221, 190, 28)"/>
        <path d="M -1 -2.6643300309911133 c -2 -3.6643300309911133,5 -1.1650310216937796,12 19.97196037189336 s 2 -0.49929900929733406,-4 -5.664330030991113 s 4 6.657320123964453,-5 -6.664330030991113 s -2 -3.6643300309911133,6 9.98598018594668 q -7 -8.664330030991113,-16 -17.664330030991113 t 7 11.650310216937793 t 8 13.314640247928907 q 3 4.99299009297334,-9 -10.664330030991113 t 1 1.6643300309911133 t 2 3.3286600619822266" fill="transparent" opacity=".75" stroke="rgb(221, 190, 28)"/>
        <path d="M 1 -0.1932058166515113 c 2 -0.3864116333030226,-3.6230793261395555 -13.52440716560579,12 23.184697998181356 s -1.552748282631238 -5.796174499545339,-4 -5.932058166515112 s 4 7.7282326660604515,-2.587913804385397 -9.660290832575564 s -2 -3.932058166515113,6 11.592348999090678 q -7 -8.932058166515112,-8.28132417403327 -30.912930664241806 t 7 13.52440716560579 t 8 15.456465332120903 q 3 5.796174499545339,-4.658244847893714 -17.388523498636015 t 1 1.9320581665151129 t 2 3.8641163330302257" fill="transparent" opacity=".75" stroke="rgb(28, 190, 221)"/>
        <path d="M -0.5367240403171165 -1.8631548521828143 c -1.073448080634233 -3.7263097043656286,-7 -8.863154852182815,12 22.35785822619377 s -3 -4.863154852182815,4 7.452619408731257 s 4 7.452619408731257,5 9.315774260914072 s 2 3.7263097043656286,6 11.178929113096885 q 7 13.0420839652797,16 29.81047763492503 t 7 13.0420839652797 t 8 14.905238817462514 q 3 5.589464556548442,9 16.768393669645327 t 1 1.8631548521828143 t 2 3.7263097043656286" fill="transparent" opacity=".75" stroke="rgb(28, 190, 221)"/>
    </g>
</svg>